<?xml version="1.0" encoding="UTF-8"?>
<svg xmlns="http://www.w3.org/2000/svg" xmlns:xlink="http://www.w3.org/1999/xlink" viewBox="0 0 65 65" width="65px" height="65px">
<g id="surface28183513">
<path style=" stroke:none;fill-rule:nonzero;fill:rgb(100%,100%,100%);fill-opacity:1;" d="M 26 11.699219 L 26 18.199219 L 13 18.199219 L 13 24.699219 L 6.5 24.699219 L 6.5 31.199219 L 1.460938 31.199219 C 0.84375 31.210938 0.320312 31.652344 0.203125 32.257812 C 0.203125 32.257812 0 33.367188 0 34.773438 C 0 35.667969 0.0898438 36.636719 0.242188 37.617188 C 0.167969 37.640625 0.0664062 37.683594 0 37.699219 L 0.242188 37.699219 C 0.621094 40.050781 1.484375 42.554688 2.925781 44.929688 C 2.929688 44.941406 2.917969 44.960938 2.925781 44.972656 C 2.933594 44.996094 2.949219 45.027344 2.964844 45.054688 C 3.03125 45.363281 3.203125 45.636719 3.453125 45.824219 C 3.476562 45.839844 3.507812 45.855469 3.535156 45.867188 C 3.933594 46.445312 4.355469 47.023438 4.835938 47.570312 C 8.3125 51.582031 13.960938 54.601562 22.101562 54.601562 C 35.390625 54.601562 46.628906 48.9375 52.976562 37.699219 L 64.796875 37.699219 C 63.386719 37.34375 60.351562 36.867188 60.855469 35.019531 C 59.175781 36.964844 55.976562 37.207031 53.503906 36.765625 C 53.976562 35.871094 54.433594 34.960938 54.84375 34.003906 C 58.601562 33.90625 61.296875 32.699219 62.804688 31.242188 C 64.457031 29.644531 64.960938 27.867188 64.960938 27.867188 C 65.085938 27.371094 64.914062 26.847656 64.511719 26.527344 C 64.511719 26.527344 61.226562 24.132812 56.304688 24.945312 C 54.90625 20.347656 51.269531 18.117188 51.269531 18.117188 C 51 17.960938 50.683594 17.898438 50.375 17.957031 C 50.167969 18.003906 49.96875 18.097656 49.804688 18.242188 C 49.804688 18.242188 48.9375 18.980469 48.222656 20.3125 C 47.507812 21.644531 46.847656 23.667969 47.085938 26.285156 C 47.195312 27.507812 47.582031 28.671875 48.140625 29.777344 C 47.824219 29.972656 47.644531 30.132812 47.125 30.347656 C 46.046875 30.792969 44.480469 31.199219 42.25 31.199219 L 41.601562 31.199219 L 41.601562 24.699219 L 35.101562 24.699219 L 35.101562 11.699219 Z M 28.601562 14.300781 L 32.5 14.300781 L 32.5 18.199219 L 28.601562 18.199219 Z M 15.601562 20.800781 L 19.5 20.800781 L 19.5 24.699219 L 15.601562 24.699219 Z M 22.101562 20.800781 L 26 20.800781 L 26 24.699219 L 22.101562 24.699219 Z M 28.601562 20.800781 L 32.5 20.800781 L 32.5 24.699219 L 28.601562 24.699219 Z M 50.820312 21.085938 C 51.785156 21.800781 53.535156 23.296875 54.152344 26.570312 C 54.21875 26.929688 54.433594 27.238281 54.742188 27.433594 C 55.050781 27.625 55.429688 27.679688 55.777344 27.585938 C 59.09375 26.675781 60.886719 27.421875 61.871094 27.992188 C 61.683594 28.402344 61.714844 28.65625 60.976562 29.371094 C 59.796875 30.515625 57.789062 31.667969 54.03125 31.523438 C 53.484375 31.503906 52.980469 31.828125 52.773438 32.335938 C 52.253906 33.632812 51.65625 34.832031 51.023438 35.992188 C 50.832031 35.882812 50.667969 35.75 50.539062 35.628906 C 48.796875 38.152344 38.691406 37.1875 37.984375 35.222656 C 35.804688 37.78125 29.035156 37.78125 26.851562 35.222656 C 26.148438 37.1875 16 38.152344 14.257812 35.628906 C 12.699219 37.089844 6.546875 37.988281 3.980469 35.019531 C 4.226562 35.914062 3.59375 36.492188 2.761719 36.886719 C 2.65625 36.144531 2.601562 35.441406 2.601562 34.773438 C 2.601562 34.214844 2.640625 34.164062 2.679688 33.800781 L 42.25 33.800781 C 44.808594 33.800781 46.730469 33.3125 48.101562 32.742188 C 49.472656 32.175781 50.445312 31.484375 50.578125 31.402344 C 50.894531 31.207031 51.105469 30.886719 51.167969 30.519531 C 51.226562 30.160156 51.132812 29.78125 50.902344 29.492188 C 50.183594 28.554688 49.804688 27.375 49.683594 26.039062 C 49.496094 23.945312 49.988281 22.476562 50.496094 21.53125 C 50.667969 21.210938 50.679688 21.277344 50.820312 21.085938 Z M 9.101562 27.300781 L 13 27.300781 L 13 31.199219 L 9.101562 31.199219 Z M 15.601562 27.300781 L 19.5 27.300781 L 19.5 31.199219 L 15.601562 31.199219 Z M 22.101562 27.300781 L 26 27.300781 L 26 31.199219 L 22.101562 31.199219 Z M 28.601562 27.300781 L 32.5 27.300781 L 32.5 31.199219 L 28.601562 31.199219 Z M 35.101562 27.300781 L 39 27.300781 L 39 31.199219 L 35.101562 31.199219 Z M 2.925781 37.699219 L 50.050781 37.699219 C 44.082031 47.339844 34.175781 52 22.101562 52 C 14.992188 52 10.378906 49.585938 7.351562 46.394531 C 13.121094 46.667969 17.589844 45.132812 17.589844 45.132812 C 18.304688 45.042969 18.820312 44.386719 18.726562 43.671875 C 18.636719 42.957031 17.980469 42.441406 17.265625 42.535156 C 17.195312 42.542969 17.128906 42.554688 17.0625 42.574219 C 16.949219 42.589844 16.84375 42.617188 16.738281 42.65625 C 16.738281 42.65625 11.421875 44.46875 5.199219 43.589844 C 4.03125 41.664062 3.296875 39.605469 2.925781 37.699219 Z M 20.800781 40.300781 C 20.085938 40.300781 19.5 40.882812 19.5 41.601562 C 19.5 42.316406 20.085938 42.898438 20.800781 42.898438 C 21.515625 42.898438 22.101562 42.316406 22.101562 41.601562 C 22.101562 41.421875 22.085938 41.265625 22.019531 41.113281 C 21.925781 41.273438 21.730469 41.398438 21.53125 41.398438 C 21.238281 41.398438 21.003906 41.121094 21.003906 40.828125 C 21.003906 40.628906 21.128906 40.472656 21.289062 40.382812 C 21.140625 40.324219 20.96875 40.300781 20.800781 40.300781 Z M 20.800781 40.300781 "/>
</g>
</svg>
